<svg xmlns="http://www.w3.org/2000/svg" viewBox="0 0 44.3 70.04"><defs><style>.a{isolation:isolate;}.b{fill:#557952;}.c{fill:#789172;opacity:0.67;}.d{mix-blend-mode:darken;}.e{fill:#435f42;}.f{fill:#90c740;}.g{fill:#fff;}.h{fill:#7c1315;}.i{fill:#e8c581;}</style></defs><title>cbm-logo</title><g class="a"><path class="b" d="M41.92,21.38a49.75,49.75,0,0,1-1.86,21.77c-.29.9-2.06.31-2.39,1.16-.44,1.15.57,3.71.07,4.77A54.27,54.27,0,0,1,31,59.91c-.3.37-1.15-.82-1.45-.47-.7.84-.83,3.17-1.49,3.88a45.74,45.74,0,0,1-6.7,6,42.07,42.07,0,0,1-6.72-6.91c-.43-.54.1-3-.35-3.58s-1.8.71-2.23.09A62,62,0,0,1,6.41,48.67c-.45-1,.85-4,.43-5.12-.32-.86-2.37.12-2.66-.78A69.43,69.43,0,0,1,1.31,29.48c-.15-1.29,1.07-3.49,1-4.84,0-.72-1.42-.57-1.45-1.31a7.49,7.49,0,0,1,0-1.95C3.26,10.62,11.2.84,22.55.84S40.43,10,41.92,21.38Z"/><path class="c" d="M22.13,1h.29c11.36,0,18.19,9.19,19.67,20.6a49.11,49.11,0,0,1-2.16,21.71c-.28.9-2.06.31-2.39,1.16-.43,1.14.57,3.71.07,4.77A54.1,54.1,0,0,1,30.87,60c-.3.37-1.15-.82-1.44-.47-.7.83-.84,3.16-1.5,3.87a75.53,75.53,0,0,1-6.18,6"/><g class="d"><path class="e" d="M24,.11a21.78,21.78,0,0,1,9.55,3.08,19.8,19.8,0,0,1,5.48,5.33,30.75,30.75,0,0,1,4.76,11.54,25.14,25.14,0,0,1,.47,3.8c.07.9-.53,1.41-1.51,1.38a24.39,24.39,0,0,1,.7,6.38A25.72,25.72,0,0,1,42,40a38.35,38.35,0,0,1-1.53,3.73,2.17,2.17,0,0,1-1.19.79,3.15,3.15,0,0,1-1.06,0,24.05,24.05,0,0,1-.64,7.22,22.93,22.93,0,0,1-1.66,4.7,24.81,24.81,0,0,1-3.18,4.15c-.58.68-1.31.13-1.94-.16-.32-.15-.62-.36-1-.58a15.11,15.11,0,0,1-2.39,4.88,17.64,17.64,0,0,1-5.26,5.21,1.26,1.26,0,0,1-1.26-.14,20.16,20.16,0,0,1-6.24-7.38,31.13,31.13,0,0,1-1.09-2.92c-.48.28-.94.58-1.42.84A1.2,1.2,0,0,1,10.5,60a20,20,0,0,1-4-8.27,17.77,17.77,0,0,1-.54-5.19c0-.9.18-1.78.28-2.76L4.84,44a1.28,1.28,0,0,1-1.39-.71,18.13,18.13,0,0,1-1.87-5.48,53,53,0,0,1-.8-5.45,26.84,26.84,0,0,1,.35-4.73,29.79,29.79,0,0,1,.69-3.05c-2-.06-2-1-1.59-3,.36-1.71.64-3.46,1.12-5.12A29.13,29.13,0,0,1,5.42,8.17a20,20,0,0,1,6.36-5.68,14.76,14.76,0,0,1,5.78-2C18.86.34,20.17.21,21.48,0M41.94,22a31.77,31.77,0,0,0-2.65-8.79,18.85,18.85,0,0,0-5.42-6.83,17.25,17.25,0,0,0-9.16-3.62,22.87,22.87,0,0,0-7.81.45A16.26,16.26,0,0,0,9.6,7a19.2,19.2,0,0,0-3.34,4A24.61,24.61,0,0,0,2.91,19c-.22.95-.37,1.93-.57,3a4.8,4.8,0,0,0,.54,0c1.17-.16,2.34-.28,3.5-.51a38.77,38.77,0,0,0,4.25-1.05c1-.32,2-.93,3-1.31a1,1,0,0,1,1,.24,21.3,21.3,0,0,1,1.62,2.39A16.24,16.24,0,0,0,21.72,27a.77.77,0,0,0,.69,0A11.38,11.38,0,0,0,24.17,26,19,19,0,0,0,29,20.42c.67-1.19,1-1.47,2.25-.8a24.51,24.51,0,0,0,3,1.39,29.85,29.85,0,0,0,6.82,1.51l1,.16m-23.79,4.9a18.64,18.64,0,0,1-.47,1.89c-.67,2-1.38,4-2.08,6-.31.88-.92,1.66-.7,2.74a19.94,19.94,0,0,0,6.33,11.27c.4.36.67.33,1-.07,1.23-1.48,2.51-2.9,3.7-4.42a13.66,13.66,0,0,0,2.57-6.35,3.62,3.62,0,0,0-.17-2.35,16.66,16.66,0,0,1-1.19-3.35c-.45-1.8-.78-3.64-1.16-5.44-.74.53-1.52,1.13-2.34,1.66s-1.85,1.25-2.93.33C20.09,28.81,19.22,28.24,18.33,27.58ZM39,41.83c.46-1.33,1-2.64,1.36-4a37.64,37.64,0,0,0,.87-4.25,19.5,19.5,0,0,0-.66-8.08.79.79,0,0,0-.49-.46c-1.33-.31-2.68-.49-4-.87a32,32,0,0,1-4.72-1.69c-.71-.33-1-.13-1.3.5a10.16,10.16,0,0,1-.95,1.31,2.61,2.61,0,0,0-.82,2.24c.3,1.56.5,3.15.85,4.69.77,3.46,2.12,6.52,4.75,8.52C35.4,40.88,37,42,39,41.83ZM4.24,24.89C2,30.65,2.94,36.18,5,41.67h.72a2.09,2.09,0,0,0,.35,0A10.88,10.88,0,0,0,13.23,36a36.37,36.37,0,0,0,3.09-9.18,1.29,1.29,0,0,0-.42-1.38,2.3,2.3,0,0,1-.36-.45c-.65-.92-1.3-1.84-1.91-2.72A37,37,0,0,1,4.24,24.89Zm26.5,15c-.08.19-.14.35-.2.51a38.15,38.15,0,0,1-1.86,4.69,48.64,48.64,0,0,1-3,4.27,1.48,1.48,0,0,0-.29,1,10,10,0,0,0,2,4.06,19.18,19.18,0,0,0,4,3.56c.28.22.5.27.78,0a14.61,14.61,0,0,0,2.72-4.43,19.9,19.9,0,0,0,1-9.69A13.2,13.2,0,0,1,30.74,39.88ZM21.57,67.37a12.78,12.78,0,0,0,4.1-4.2c.8-1.33,1.46-2.78,2.14-4.22a1.08,1.08,0,0,0-.15-.87,13.36,13.36,0,0,1-3.2-4,25.29,25.29,0,0,1-1-2.41c-1.07,1.46-2.15,1-3.16,0a17.44,17.44,0,0,1-4.61,6.24.65.65,0,0,0-.14.53,14.77,14.77,0,0,0,4.05,7.06C20.25,66.05,20.88,66.71,21.57,67.37ZM13,39.82a.34.34,0,0,0-.19.1,11.71,11.71,0,0,1-4,3.1c-.08,0-.18.11-.19.18a28.56,28.56,0,0,0-.52,4.93,22.89,22.89,0,0,0,1.09,5,11.72,11.72,0,0,0,2.12,4.18c.25.3.43.49.82.14a17.87,17.87,0,0,1,1.8-1.34,13.26,13.26,0,0,0,4.35-5.59,1,1,0,0,0-.07-.84,24.77,24.77,0,0,1-3.55-5.62C14,42.73,13.58,41.27,13,39.82Z"/></g><path class="f" d="M32.64,20.31A10.78,10.78,0,1,1,21.86,9.53,10.78,10.78,0,0,1,32.64,20.31Z"/><path class="e" d="M32.64,20.31A10.78,10.78,0,1,1,21.86,9.53,10.78,10.78,0,0,1,32.64,20.31Z"/><path class="g" d="M21.86,28.58a8.33,8.33,0,1,1,8.33-8.33A8.33,8.33,0,0,1,21.86,28.58Z"/><path class="h" d="M27.73,22.62a6.21,6.21,0,1,1,0-4.66L22,20.29Z"/><circle class="i" cx="21.97" cy="20.29" r="3.1"/></g></svg>