<svg xmlns="http://www.w3.org/2000/svg" xmlns:xlink="http://www.w3.org/1999/xlink" viewBox="0 0 29.97 58.93"><defs><style>.a{isolation:isolate;}.b{opacity:0.2;fill:url(#a);}.c{fill:#557952;}.d{fill:#789172;opacity:0.67;}.e{mix-blend-mode:darken;}.f{fill:#435f42;}.g{fill:#90c740;}.h{fill:#fff;}.i{fill:#7c1315;}.j{fill:#e8c581;}</style><radialGradient id="a" cx="-53.85" cy="83.18" r="30.96" gradientTransform="translate(32.29 41.97) scale(0.33 0.15)" gradientUnits="userSpaceOnUse"><stop offset="0"/><stop offset="1" stop-color="#fff" stop-opacity="0"/></radialGradient></defs><title>Asset 1</title><g class="a"><ellipse class="b" cx="14.71" cy="54.33" rx="10.11" ry="4.6"/><path class="c" d="M28.36,14.46A33.66,33.66,0,0,1,27.1,29.19c-.2.61-1.4.21-1.62.78-.29.78.38,2.51.05,3.23A36.59,36.59,0,0,1,21,40.53c-.2.25-.78-.56-1-.32-.47.56-.56,2.14-1,2.62a31.13,31.13,0,0,1-4.53,4.07A28.36,28.36,0,0,1,9.9,42.22c-.29-.36.07-2-.23-2.42s-1.22.48-1.51.06a42.13,42.13,0,0,1-3.82-6.94c-.31-.7.57-2.7.29-3.46-.22-.58-1.6.08-1.8-.53a46.84,46.84,0,0,1-1.95-9c-.1-.87.73-2.36.67-3.27,0-.49-1-.39-1-.89a4.86,4.86,0,0,1,0-1.32C2.2,7.18,7.57.57,15.25.57S27.35,6.75,28.36,14.46Z"/><path class="d" d="M15,.66h.2c7.68,0,12.3,6.21,13.3,13.93A33.36,33.36,0,0,1,27,29.28c-.19.6-1.39.2-1.61.78-.3.77.38,2.51,0,3.23a36.33,36.33,0,0,1-4.56,7.32c-.2.25-.78-.55-1-.32-.47.57-.56,2.14-1,2.62A50,50,0,0,1,14.71,47"/><g class="e"><path class="f" d="M16.25.08a14.69,14.69,0,0,1,6.47,2.08,13.31,13.31,0,0,1,3.7,3.6,20.78,20.78,0,0,1,3.22,7.81A16.87,16.87,0,0,1,30,16.14c.05.61-.36.95-1,.93a16.5,16.5,0,0,1,.47,4.32,17.3,17.3,0,0,1-1,5.65,26.65,26.65,0,0,1-1,2.52,1.46,1.46,0,0,1-.8.53,1.94,1.94,0,0,1-.72,0A16.13,16.13,0,0,1,25.43,35a15.55,15.55,0,0,1-1.13,3.18A17.36,17.36,0,0,1,22.16,41c-.4.46-.89.09-1.32-.11-.21-.1-.42-.24-.67-.39a10.58,10.58,0,0,1-1.62,3.3A11.93,11.93,0,0,1,15,47.3a.85.85,0,0,1-.85-.09,13.49,13.49,0,0,1-4.22-5,20.88,20.88,0,0,1-.74-2l-1,.57A.81.81,0,0,1,7.1,40.6,13.57,13.57,0,0,1,4.38,35,12.15,12.15,0,0,1,4,31.49c0-.6.12-1.2.19-1.86l-.93.13a.85.85,0,0,1-.94-.48,11.93,11.93,0,0,1-1.27-3.7,35.66,35.66,0,0,1-.54-3.69,18.38,18.38,0,0,1,.7-5.26c-1.37,0-1.37-.67-1.07-2.06.24-1.16.43-2.34.76-3.46A19.24,19.24,0,0,1,3.67,5.53,13.5,13.5,0,0,1,8,1.69,10,10,0,0,1,11.88.36C12.76.23,13.65.14,14.53,0M28.37,14.87a21.1,21.1,0,0,0-1.79-5.94A12.68,12.68,0,0,0,22.91,4.3a11.74,11.74,0,0,0-6.2-2.45,15.94,15.94,0,0,0-5.28.3A11.12,11.12,0,0,0,6.49,4.73,13.06,13.06,0,0,0,4.24,7.41,16.6,16.6,0,0,0,2,12.86c-.15.65-.25,1.31-.39,2a1.79,1.79,0,0,0,.37,0c.79-.11,1.58-.18,2.37-.34a28.62,28.62,0,0,0,2.87-.71c.7-.22,1.35-.63,2.05-.89a.72.72,0,0,1,.7.16A14.8,14.8,0,0,1,11,14.73a11,11,0,0,0,3.66,3.54.52.52,0,0,0,.47,0,7.37,7.37,0,0,0,1.19-.74,12.59,12.59,0,0,0,3.29-3.75c.45-.8.67-1,1.52-.54a17.57,17.57,0,0,0,2,.94,19.42,19.42,0,0,0,4.61,1l.7.11M12.4,18.65c-.11.44-.18.88-.32,1.28-.45,1.36-.93,2.71-1.41,4.06-.21.6-.62,1.13-.47,1.86a13.43,13.43,0,0,0,4.29,7.62c.27.24.44.22.67,0,.83-1,1.7-2,2.5-3a9.23,9.23,0,0,0,1.74-4.29,2.45,2.45,0,0,0-.12-1.59,11.52,11.52,0,0,1-.8-2.27c-.31-1.22-.53-2.46-.79-3.68-.49.36-1,.77-1.58,1.13s-1.25.84-2,.22C13.59,19.49,13,19.1,12.4,18.65Zm14,9.65c.31-.91.67-1.79.92-2.71a25.31,25.31,0,0,0,.58-2.88,13.1,13.1,0,0,0-.44-5.47.55.55,0,0,0-.34-.31c-.89-.21-1.81-.33-2.7-.59a22.07,22.07,0,0,1-3.19-1.14c-.48-.22-.65-.09-.88.34a6.81,6.81,0,0,1-.64.88,1.81,1.81,0,0,0-.56,1.52c.21,1,.35,2.13.58,3.17a9.46,9.46,0,0,0,3.22,5.77A5.2,5.2,0,0,0,26.38,28.3ZM2.87,16.62C1.33,20.51,2,24.26,3.35,28h.49A.65.65,0,0,0,4,28a7.4,7.4,0,0,0,5-3.85A24.69,24.69,0,0,0,11,17.91a.89.89,0,0,0-.28-.94,1.81,1.81,0,0,1-.25-.3c-.44-.63-.88-1.25-1.29-1.85A24.8,24.8,0,0,1,2.87,16.62ZM20.79,27c-.05.12-.09.23-.13.34A27,27,0,0,1,19.4,30.5a33.82,33.82,0,0,1-2,2.88,1,1,0,0,0-.19.66,6.68,6.68,0,0,0,1.33,2.74,12.57,12.57,0,0,0,2.71,2.41c.19.15.34.19.52,0a10,10,0,0,0,1.84-3,13.38,13.38,0,0,0,.66-6.56A8.91,8.91,0,0,1,20.79,27Zm-6.2,18.59a8.65,8.65,0,0,0,2.77-2.84,30.46,30.46,0,0,0,1.45-2.85.74.74,0,0,0-.1-.59,9.14,9.14,0,0,1-2.16-2.74,15.64,15.64,0,0,1-.7-1.63c-.72,1-1.45.68-2.14,0a11.68,11.68,0,0,1-3.12,4.21.47.47,0,0,0-.09.37,9.38,9.38,0,0,0,.56,1.62,9.92,9.92,0,0,0,2.18,3.15C13.7,44.68,14.13,45.12,14.59,45.57ZM8.82,26.94s-.09,0-.14.07A7.8,7.8,0,0,1,6,29.1s-.13.07-.13.12a19,19,0,0,0-.35,3.33A15.42,15.42,0,0,0,6.22,36a7.92,7.92,0,0,0,1.43,2.82c.17.21.29.34.55.1A11.71,11.71,0,0,1,9.42,38a8.78,8.78,0,0,0,2.94-3.78.7.7,0,0,0,0-.57,17,17,0,0,1-2.41-3.8C9.49,28.91,9.19,27.92,8.82,26.94Z"/></g><path class="g" d="M22.08,13.74a7.3,7.3,0,1,1-7.29-7.29A7.29,7.29,0,0,1,22.08,13.74Z"/><path class="f" d="M22.08,13.74a7.3,7.3,0,1,1-7.29-7.29A7.29,7.29,0,0,1,22.08,13.74Z"/><path class="h" d="M14.79,19.34a5.64,5.64,0,1,1,5.63-5.64A5.65,5.65,0,0,1,14.79,19.34Z"/><path class="i" d="M18.76,15.3a4.2,4.2,0,1,1,0-3.15l-3.9,1.57Z"/><circle class="j" cx="14.86" cy="13.72" r="2.1"/></g></svg>